<mxfile host="app.diagrams.net" modified="2024-02-14T17:46:27.813Z" agent="Mozilla/5.0 (Windows NT 10.0; Win64; x64) AppleWebKit/537.36 (KHTML, like Gecko) Chrome/121.0.0.0 Safari/537.36" version="23.1.4" etag="a4XXoD_fnef0AneWDUus" type="device">
  <diagram id="9o7VJArsBQwBW2w9fXMB" name="Page-1">
    <mxGraphModel dx="229" dy="133" grid="1" gridSize="10" guides="1" tooltips="1" connect="1" arrows="1" fold="1" page="1" pageScale="1" pageWidth="1654" pageHeight="1169" math="0" shadow="0">
      <root>
        <mxCell id="0" />
        <mxCell id="1" parent="0" />
        <mxCell id="23" style="edgeStyle=none;html=1;exitX=1;exitY=0.5;exitDx=0;exitDy=0;strokeWidth=2;" parent="1" source="19" target="20" edge="1">
          <mxGeometry relative="1" as="geometry" />
        </mxCell>
        <mxCell id="29" value=":ADDS_TO_LIBRARY&lt;br&gt;date" style="edgeLabel;html=1;align=center;verticalAlign=middle;resizable=0;points=[];" parent="23" vertex="1" connectable="0">
          <mxGeometry x="-0.0784" relative="1" as="geometry">
            <mxPoint x="-15" y="-20" as="offset" />
          </mxGeometry>
        </mxCell>
        <mxCell id="25" style="edgeStyle=none;html=1;exitX=0.5;exitY=1;exitDx=0;exitDy=0;entryX=-0.001;entryY=0.538;entryDx=0;entryDy=0;strokeWidth=2;entryPerimeter=0;" parent="1" source="19" target="21" edge="1">
          <mxGeometry relative="1" as="geometry">
            <Array as="points">
              <mxPoint x="240" y="344" />
            </Array>
          </mxGeometry>
        </mxCell>
        <mxCell id="30" value=":LIKES&lt;br&gt;value: true/false" style="edgeLabel;html=1;align=center;verticalAlign=middle;resizable=0;points=[];" parent="25" vertex="1" connectable="0">
          <mxGeometry x="-0.3161" y="2" relative="1" as="geometry">
            <mxPoint x="48" y="28" as="offset" />
          </mxGeometry>
        </mxCell>
        <mxCell id="33" style="edgeStyle=none;html=1;exitX=1;exitY=1;exitDx=0;exitDy=0;strokeWidth=2;" parent="1" source="19" target="21" edge="1">
          <mxGeometry relative="1" as="geometry">
            <Array as="points">
              <mxPoint x="270" y="240" />
              <mxPoint x="270" y="270" />
              <mxPoint x="400" y="270" />
            </Array>
          </mxGeometry>
        </mxCell>
        <mxCell id="34" value=":WRITES" style="edgeLabel;html=1;align=center;verticalAlign=middle;resizable=0;points=[];" parent="33" vertex="1" connectable="0">
          <mxGeometry x="-0.2314" y="-2" relative="1" as="geometry">
            <mxPoint x="36" y="-12" as="offset" />
          </mxGeometry>
        </mxCell>
        <mxCell id="19" value="" style="ellipse;whiteSpace=wrap;html=1;fillColor=#dae8fc;strokeColor=#6c8ebf;strokeWidth=3;" parent="1" vertex="1">
          <mxGeometry x="200" y="135" width="80" height="80" as="geometry" />
        </mxCell>
        <mxCell id="20" value="" style="ellipse;whiteSpace=wrap;html=1;fillColor=#dae8fc;strokeColor=#6c8ebf;strokeWidth=3;" parent="1" vertex="1">
          <mxGeometry x="510" y="130" width="100" height="90" as="geometry" />
        </mxCell>
        <mxCell id="21" value="" style="ellipse;whiteSpace=wrap;html=1;fillColor=#dae8fc;strokeColor=#6c8ebf;strokeWidth=3;" parent="1" vertex="1">
          <mxGeometry x="350" y="290" width="110" height="100" as="geometry" />
        </mxCell>
        <mxCell id="31" style="edgeStyle=none;html=1;exitX=0;exitY=0.5;exitDx=0;exitDy=0;entryX=0.5;entryY=0;entryDx=0;entryDy=0;strokeWidth=2;" parent="1" source="19" target="19" edge="1">
          <mxGeometry relative="1" as="geometry">
            <Array as="points">
              <mxPoint x="160" y="175" />
              <mxPoint x="160" y="80" />
              <mxPoint x="240" y="80" />
            </Array>
          </mxGeometry>
        </mxCell>
        <mxCell id="32" value=":FOLLOWS" style="edgeLabel;html=1;align=center;verticalAlign=middle;resizable=0;points=[];" parent="31" vertex="1" connectable="0">
          <mxGeometry x="0.2204" relative="1" as="geometry">
            <mxPoint x="14" y="10" as="offset" />
          </mxGeometry>
        </mxCell>
        <mxCell id="Nr_lf08Ew2cLJZAsXUBz-34" value="username" style="text;html=1;strokeColor=none;fillColor=none;align=center;verticalAlign=middle;whiteSpace=wrap;rounded=0;" parent="1" vertex="1">
          <mxGeometry x="210" y="169" width="60" height="30" as="geometry" />
        </mxCell>
        <mxCell id="Nr_lf08Ew2cLJZAsXUBz-35" value="&lt;b&gt;&lt;font color=&quot;#0000ff&quot;&gt;User&lt;/font&gt;&lt;/b&gt;" style="text;html=1;strokeColor=none;fillColor=none;align=center;verticalAlign=middle;whiteSpace=wrap;rounded=0;" parent="1" vertex="1">
          <mxGeometry x="210" y="146" width="60" height="30" as="geometry" />
        </mxCell>
        <mxCell id="Nr_lf08Ew2cLJZAsXUBz-36" value="&lt;b&gt;&lt;font color=&quot;#0000ff&quot;&gt;Review&lt;/font&gt;&lt;/b&gt;" style="text;html=1;strokeColor=none;fillColor=none;align=center;verticalAlign=middle;whiteSpace=wrap;rounded=0;" parent="1" vertex="1">
          <mxGeometry x="375" y="313" width="60" height="30" as="geometry" />
        </mxCell>
        <mxCell id="Nr_lf08Ew2cLJZAsXUBz-37" value="&lt;font style=&quot;&quot;&gt;mongoId&lt;br&gt;&lt;/font&gt;" style="text;html=1;strokeColor=none;fillColor=none;align=center;verticalAlign=middle;whiteSpace=wrap;rounded=0;" parent="1" vertex="1">
          <mxGeometry x="345" y="331" width="120" height="40" as="geometry" />
        </mxCell>
        <mxCell id="Nr_lf08Ew2cLJZAsXUBz-39" value="mongoId&lt;br&gt;name&lt;br&gt;releaseYear" style="text;html=1;strokeColor=none;fillColor=none;align=center;verticalAlign=middle;whiteSpace=wrap;rounded=0;" parent="1" vertex="1">
          <mxGeometry x="530" y="167" width="60" height="30" as="geometry" />
        </mxCell>
        <mxCell id="Nr_lf08Ew2cLJZAsXUBz-40" value="&lt;b&gt;&lt;font color=&quot;#0000ff&quot;&gt;Game&lt;/font&gt;&lt;/b&gt;" style="text;html=1;strokeColor=none;fillColor=none;align=center;verticalAlign=middle;whiteSpace=wrap;rounded=0;" parent="1" vertex="1">
          <mxGeometry x="529" y="136" width="60" height="30" as="geometry" />
        </mxCell>
        <mxCell id="jXrhpUXZwqR2_by3krnf-35" style="edgeStyle=none;html=1;exitX=0.958;exitY=0.702;exitDx=0;exitDy=0;strokeWidth=2;fontStyle=1;exitPerimeter=0;entryX=0.5;entryY=1;entryDx=0;entryDy=0;" edge="1" parent="1" source="19" target="20">
          <mxGeometry relative="1" as="geometry">
            <mxPoint x="300" y="240" as="sourcePoint" />
            <mxPoint x="530" y="240" as="targetPoint" />
            <Array as="points">
              <mxPoint x="300" y="220" />
            </Array>
          </mxGeometry>
        </mxCell>
        <mxCell id="jXrhpUXZwqR2_by3krnf-36" value=":ADDS_TO_WISHLIST" style="edgeLabel;html=1;align=center;verticalAlign=middle;resizable=0;points=[];" vertex="1" connectable="0" parent="jXrhpUXZwqR2_by3krnf-35">
          <mxGeometry x="-0.0784" relative="1" as="geometry">
            <mxPoint x="6" y="-10" as="offset" />
          </mxGeometry>
        </mxCell>
      </root>
    </mxGraphModel>
  </diagram>
</mxfile>
